<svg height="216" viewBox="0 0 1600 216" width="1600" xmlns="http://www.w3.org/2000/svg" xmlns:xlink="http://www.w3.org/1999/xlink"><mask id="a" fill="#fff"><path d="m.07792208.43980723h1599.85713792v215.56019277h-1599.85713792z" fill="#fff" fill-rule="evenodd"/></mask><g fill="none" fill-rule="evenodd"><g fill="#5aa144"><path d="m516.445455 110.050699c-.144156 18.949446-.144156 28.424819 0 28.424819h.215584c1.144156.290169 2.397403.575133 3.75974.861398 1.361039.290168 3.761039.612867 7.2.969397 3.44026.360434 6.627273.430699 9.564935.214699 2.935065-.214699 6.232468-.860096 9.887013-1.937494 3.654546-1.076096 6.732468-2.690891 9.241559-4.844385 2.505195-2.153494 4.622078-5.239952 6.341558-9.260675 1.719481-4.016819 2.579221-8.754506 2.579221-14.21306 0-5.739615-.719481-10.7284341-2.149351-14.9664582-1.433766-4.2315181-3.297402-7.5365784-5.58961-9.9047711-2.293507-2.3681928-5.016883-4.2705542-8.166234-5.7070844-3.153247-1.4339277-6.2-2.2953253-9.135065-2.5841927-2.938961-.2862651-6.054545-.3226988-9.348052-.108-3.3.216-6.057143.5386988-8.276623.9693976-2.223377.4306988-4.264935.9355662-6.124675 1.5067951zm0-61.5899279-12.896104 14.859759c2.864935-1.0032289 5.480519-2.4384578 7.844155-4.3069879 2.366234-1.8633253 4.225975-3.4078555 5.589611-4.6283856 1.35974-1.2179277 3.975325-2.331759 7.844156-3.3375903 3.867532-1.0045302 8.953246-1.5093976 15.25974-1.5093976 5.72987 0 11.248052.5751325 16.549351 1.7240964 5.3 1.1515662 10.532467 3.1593253 15.68961 6.0297831 5.15974 2.8730602 9.636364 6.4591807 13.433766 10.7674699 3.794805 4.3056867 6.841559 9.8709397 9.135065 16.689253 2.289611 6.8196144 3.438961 14.535759 3.438961 23.1484339 0 22.255807-4.801298 38.153928-14.4 47.698265-9.602597 9.550843-25.437662 14.32106-47.5 14.32106-7.022078 0-13.325974-.360434-18.912987-1.076096-5.58961-.716964-10.032467-1.508097-13.325974-2.369494-3.298701-.861398-6.306493-2.045494-9.028571-3.552289-2.723377-1.506796-4.587013-2.727326-5.587013-3.662892-1.003896-.931663-2.115585-2.152193-3.331169-3.660289-1.219481-1.506795-1.901299-2.330458-2.041558-2.476193v-127.0535421c0-5.7383132.677922-10.120771 2.041558-13.1356626 1.35974-3.01489158 3.257143-4.91465061 5.694805-5.70578314 2.435065-.78722892 4.977922-1.18409639 7.631169-1.18409639 2.649351 0 5.587013-.216 8.81039-.64669879 3.224675-.4306988 5.911688-1.43392771 8.061039-3.01619278z"/><path d="m650.694805 104.451614c2.433766-1.722795 6.41039-2.869156 11.928572-3.444289 5.514285-.57253 10.671428-.895229 15.475324-.969397 4.798702-.0702653 9.059741-1.0773979 12.787013-3.0161931 3.725974-1.9374939 5.514286-4.9862168 5.374026-9.1513735 0-3.7305542-2.937662-6.8183132-8.812987-9.2606747-8.166234-3.4455903-16.11948-3.7305542-23.855844-.8613975-10.748052 3.8762891-15.045454 12.7804337-12.896104 26.7033248zm1.074026 22.611037c0 4.452722 2.219481 7.790313 6.662338 10.014072 4.44026 2.227663 10.064935 3.374024 16.871428 3.444289 6.805195.074169 13.467533-.214699 19.989611-.860096 6.518182-.646699 12.680519-1.400097 18.484415-2.261494 5.802598-.861398 9.133767-1.292097 9.993507-1.292097.571428 12.490265-1.901299 21.31894-7.414286 26.488627-5.518182 5.167084-16.587013 7.751277-33.206493 7.751277-22.928572 0-39.763637-4.663518-50.509091-13.998362-10.746754-9.328337-16.119481-25.480192-16.119481-48.451662 0-11.4844339 1.467533-21.2109399 4.405195-29.1795183 2.935065-7.9672771 7.233766-14.0308915 12.896104-18.1960481 5.658441-4.1625543 11.963636-7.1058796 18.914286-8.8286747 6.946753-1.7240964 15.077922-2.585494 24.393506-2.585494 17.766234 0 30.842857 3.7695903 39.225974 11.3061687 8.381818 7.5378795 12.572727 19.5623132 12.572727 36.0693975 0 6.3199519-1.218181 11.3803369-3.653246 15.1824579-2.438961 3.806024-5.625974 6.353783-9.564935 7.645879-3.941559 1.290796-8.671429 2.226362-14.185715 2.798892-5.516883.575133-10.961039.753398-16.335065.538699-5.371428-.216-11.176623.036434-17.409091.753397-6.233766.719567-11.572727 1.937494-16.011688 3.66029z"/><path d="m815.476623 140.414313c2.005195 6.319952 2.289611 12.133735.859741 17.442651-1.433767 5.31412-3.868832 8.829976-7.309091 10.55147-7.45065 2.295325-14.722078 2.978458-21.814286 2.045494-7.092208-.934265-13.4-2.905591-18.912987-5.920482-5.516883-3.014892-9.996104-7.393446-13.433766-13.136964-3.438961-5.740916-5.158442-12.274265-5.158442-19.594843v-92.5989402c-.144156-4.4488193.571429-8.1468434 2.149351-11.0901687 1.575325-2.9407229 3.938961-5.0603855 7.092208-6.3524819 3.14935-1.2920964 6.51948-2.115759 10.102597-2.4761928 3.579221-.3578313 7.876623-.3955662 12.896104-.108v31.2237109h36.967532v1.6160964c0 .6466987-.145454 1.9752289-.42987 3.9842891-.28961 2.0116627-.71948 3.9491566-1.28961 5.8137831-.574026 1.867229-1.541559 3.9127229-2.901299 6.1377832-1.363636 2.2276626-2.975324 4.1287229-4.837662 5.7057831-1.863637 1.5822651-4.371429 2.9068916-7.520779 3.9842892-3.153247 1.0760963-6.662338 1.6147951-10.532468 1.6147951-3.438961 0-6.592208.0741687-9.455844.2146988l.214286 49.7463617c-.144156 3.874988.645454 6.856048 2.364935 8.935373 1.718182 2.083229 4.045454 3.303759 6.983117 3.660289 2.937662.360434 5.875324.430699 8.812987.216 2.935065-.216 5.944155-.538698 9.027272-.969397 3.08052-.430699 5.122078-.645398 6.125974-.645398"/><path d="m903.316883 140.414313c2.005195 6.319952 2.289611 12.133735.85974 17.442651-1.433766 5.31412-3.867532 8.829976-7.307792 10.55147-7.451948 2.295325-14.723376 2.978458-21.815584 2.045494-7.090909-.934265-13.4-2.905591-18.912987-5.920482-5.516883-3.014892-9.994805-7.393446-13.433766-13.136964-3.438962-5.740916-5.157143-12.274265-5.157143-19.594843v-92.5989402c-.145455-4.4488193.57013-8.1468434 2.148052-11.0901687 1.575324-2.9407229 3.938961-5.0603855 7.092207-6.3524819 3.149351-1.2920964 6.519481-2.115759 10.102598-2.4761928 3.579221-.3578313 7.877922-.3955662 12.896104-.108v31.2237109h36.967532v1.6160964c0 .6466987-.144156 1.9752289-.42987 3.9842891-.288312 2.0116627-.71948 3.9491566-1.28961 5.8137831-.574026 1.867229-1.541559 3.9127229-2.901299 6.1377832-1.363636 2.2276626-2.975325 4.1287229-4.837662 5.7057831-1.863637 1.5822651-4.371429 2.9068916-7.52078 3.9842892-3.153246 1.0760963-6.662337 1.6147951-10.532467 1.6147951-3.438961 0-6.590909.0741687-9.455844.2146988l.215584 49.7463617c-.145454 3.874988.644156 6.856048 2.363636 8.935373 1.719481 2.083229 4.045455 3.303759 6.984416 3.660289 2.936364.360434 5.874026.430699 8.812987.216 2.933766-.216 5.942857-.538698 9.025974-.969397 3.08052-.430699 5.122078-.645398 6.125974-.645398"/><path d="m954.47013 104.451614c2.435065-1.722795 6.410389-2.869156 11.928571-3.444289 5.514286-.57253 10.671429-.895229 15.474026-.969397 4.797403-.0702653 9.061039-1.0773979 12.788312-3.0161931 3.723377-1.9374939 5.512991-4.9862168 5.372731-9.1513735 0-3.7305542-2.937666-6.8183132-8.810393-9.2606747-8.167533-3.4455903-16.118182-3.7305542-23.857143-.8613975-10.746753 3.8762891-15.045455 12.7804337-12.896104 26.7033248zm1.074026 22.611037c0 4.452722 2.21948 7.790313 6.662338 10.014072 4.440259 2.227663 10.064935 3.374024 16.871428 3.444289 6.803896.074169 13.468831-.214699 19.990909-.860096 6.516879-.646699 12.679219-1.400097 18.481819-2.261494 5.80519-.861398 9.13506-1.292097 9.9948-1.292097.57013 12.490265-1.9 21.31894-7.41688 26.488627-5.51688 5.167084-16.58571 7.751277-33.203895 7.751277-22.928571 0-39.763636-4.663518-50.507792-13.998362-10.748052-9.328337-16.120779-25.480192-16.120779-48.451662 0-11.4844339 1.467532-21.2109399 4.406493-29.1795183 2.933767-7.9672771 7.232468-14.0308915 12.896104-18.1960481 5.657143-4.1625543 11.962338-7.1058796 18.912987-8.8286747 6.948052-1.7240964 15.076624-2.585494 24.396104-2.585494 17.762338 0 30.840258 3.7695903 39.220778 11.3061687 8.38572 7.5378795 12.57403 19.5623132 12.57403 36.0693975 0 6.3199519-1.21818 11.3803369-3.65325 15.1824579-2.43766 3.806024-5.62208 6.353783-9.56493 7.645879-3.94156 1.290796-8.67013 2.226362-14.18312 2.798892-5.518183.575133-10.96104.753398-16.336365.538699-5.374026-.216-11.175325.036434-17.407792.753397-6.233766.719567-11.572727 1.937494-16.012987 3.66029z"/><path d="m1134.75065 48.8927711c-.14416.2888675-.10909 1.7969638.10649 4.5229879.21429 2.7286265.17922 5.349253-.10649 7.8592771-.28831 2.5126266-.85974 5.2048193-1.71818 8.0765784-.85974 2.8730602-2.61818 5.1670843-5.26753 6.8898795-2.65325 1.7227952-6.05585 2.5841927-10.21039 2.5841927-6.01689 0-10.67403.2146988-13.96884.6453976-3.2974.4306988-6.23116 1.5067952-8.81039 3.2321928-2.58311 1.7227952-4.30129 4.1651566-5.16103 7.3205783-.85974 3.1593253-1.28961 7.4650121-1.28961 12.9209636v68.909205c-2.57923-1.867229-5.98182-3.33759-10.2065-4.413687-4.23117-1.077397-7.81428-1.90106-10.74935-2.476192-2.93766-.572531-5.55195-2.261494-7.84545-5.061687-2.29351-2.798892-3.43896-6.853446-3.43896-12.166265v-57.7123376c0-.8613976.03506-2.045494.10909-3.5522891.07143-1.5080964.32078-3.5874217.75065-6.2470844.42987-2.6544578 1.14545-5.3089156 2.14935-7.9659759 1.0013-2.6544578 2.50779-5.4182168 4.51688-8.2925783 2.0039-2.8691566 4.43896-5.3830843 7.30649-7.5352771 2.86364-2.153494 6.55325-3.9465542 11.06883-5.3830843 4.51299-1.435229 9.56234-2.1547952 15.15325-2.1547952h21.27533 7.52597 2.46883z"/></g><path d="m1190.62208 52.9850602c7.02208-2.871759 18.77143-4.3082891 35.24805-4.3082891 8.02597 0 14.9039 1.366265 20.63506 4.0922891 5.72858 2.7286265 9.88572 5.8515181 12.46754 9.3673735 2.57922 3.5184579 4.54545 7.5378796 5.90909 12.0595663 1.35974 4.5216867 2.11428 7.8957108 2.25844 10.1220723.14026 2.2276626.14026 4.1274217 0 5.7057831v78.3845786c-21.49481 2.870458-32.24026-3.80082-32.24026-20.025542v-23.689735c.14156-21.387904-.85974-34.4168678-3.00779-39.0829883-2.14935-4.6648193-8.88961-7.1410121-20.2052-7.4311807-7.02207 0-14.04285 1.2920963-21.06493 3.8775903v66.3263137c.28571 8.612674-2.3987 14.249494-8.05714 16.903951-5.66494 2.658362-13.72208 3.694121-24.18182 3.121591v-167.96862677c2.57922 1.86722891 5.98182 2.98106024 10.21039 3.33889157 4.22337.36043373 7.80649.53869879 10.74805.53869879 2.93506 0 5.54935 1.54453012 7.84286 4.62968675 2.28961 3.08775906 3.43766 8.14814456 3.43766 15.18115666z" fill="#6a6a67"/><path d="m1325.33766 104.451614c2.42857-1.722795 6.41559-2.869156 11.92208-3.444289 5.51948-.57253 10.67532-.895229 15.48052-.969397 4.80519-.0702653 9.06493-1.0773979 12.79221-3.0161931 3.72727-1.9374939 5.50649-4.9862168 5.37662-9.1513735 0-3.7305542-2.94805-6.8183132-8.81818-9.2606747-8.16883-3.4455903-16.11688-3.7305542-23.85714-.8613975-10.75325 3.8762891-15.05195 12.7804337-12.89611 26.7033248zm1.07792 22.611037c0 4.452722 2.22078 7.790313 6.66234 10.014072 4.44156 2.227663 10.06494 3.374024 16.87013 3.444289 6.8052.074169 13.46753-.214699 19.98701-.860096 6.51949-.646699 12.68832-1.400097 18.48052-2.261494 5.8052-.861398 9.14286-1.292097 10-1.292097.57143 12.490265-1.90909 21.31894-7.41558 26.488627-5.51948 5.167084-16.58442 7.751277-33.20779 7.751277-22.92208 0-39.76624-4.663518-50.5065-13.998362-10.75065-9.328337-16.12207-25.480192-16.12207-48.451662 0-11.4844339 1.46883-21.2109399 4.40649-29.1795183 2.93506-7.9672771 7.23506-14.0308915 12.8974-18.1960481 5.66234-4.1625543 11.96104-7.1058796 18.90909-8.8286747 6.94806-1.7240964 15.07793-2.585494 24.4026-2.585494 17.76623 0 30.84416 3.7695903 39.22078 11.3061687 8.37662 7.5378795 12.57143 19.5623132 12.57143 36.0693975 0 6.3199519-1.22078 11.3803369-3.64935 15.1824579-2.44156 3.806024-5.62338 6.353783-9.57143 7.645879-3.93507 1.290796-8.66234 2.226362-14.18182 2.798892-5.51948.575133-10.96104.753398-16.33766.538699-5.36364-.216-11.16883.036434-17.4026.753397-6.23376.719567-11.57143 1.937494-16.01299 3.66029z" fill="#6a6a67"/><path d="m1460.27273 148.382892c.28571 8.612674-2.4026 14.249494-8.06494 16.903951-5.66234 2.658362-13.71428 3.694121-24.18182 3.121591v-167.96862677c2.58442 1.86722891 5.98702 2.98106024 10.22078 3.33889157 4.22078.36043373 7.8052.53869879 10.74026.53869879 2.93507 0 5.54546 1.54453012 7.84416 4.62968675 2.28571 3.08775906 3.44156 8.14814456 3.44156 15.18115666z" fill="#6a6a67"/><path d="m1518.03896 108.327904v30.578313c2.2987.720867 4.76623 1.292096 7.41559 1.722795 2.64935.430699 5.98701.791133 10 1.077398 4.01298.288867 7.74026-.141832 11.16883-1.292097 3.44156-1.147662 6.74026-2.798891 9.8961-4.952385 3.14286-2.153494 5.64935-5.599085 7.51948-10.338073 1.85714-4.736385 2.79221-10.405735 2.79221-17.011951 0-5.45335-.89611-10.1923377-2.68831-14.2130606-1.79221-4.0168193-3.87013-7.1045783-6.23377-9.2580723s-5.48052-3.7695904-9.35065-4.846988c-3.87013-1.0760964-7.09091-1.7227951-9.66234-1.9374939-2.58441-.2146988-5.80519-.108-9.67532.3226988-3.87013.4306987-6.23377.7208674-7.09091.8613975-.87013.1444338-2.15584.4306988-3.87013.8613976h-.22078c-.14286 0-.14286 9.4766747 0 28.4261209zm0 107.672096c-2.57143-1.867229-5.97402-2.98106-10.20779-3.33759-4.22078-.359133-7.8052-.537398-10.74026-.537398-2.94805 0-5.55844-1.54453-7.84416-4.632289-2.2987-3.087759-3.44156-8.148145-3.44156-15.179856v-127.0548429c.14286-.1405301.81819-.9680964 2.03897-2.4761928 1.22078-1.5067952 2.32467-2.6908915 3.33766-3.5522891 1-.8613976 2.85714-2.0793253 5.58441-3.6602892 2.71429-1.5783614 5.72728-2.8001928 9.02598-3.6602891 3.2987-.8613976 7.74026-1.651229 13.32467-2.3707952 5.58442-.7169639 11.89611-1.0773976 18.90909-1.0773976 22.06494 0 37.90909 4.7767229 47.5065 14.3210602 9.5974 9.5508434 14.40259 25.4489639 14.40259 47.6995667 0 10.767469-1.72727 20.102313-5.15584 27.99412-3.44156 7.898313-8.06493 13.96453-13.87013 18.196048-5.80519 4.236723-11.96104 7.323181-18.48052 9.261976-6.51948 1.937494-13.44156 2.906892-20.74026 2.906892-9.88312 0-17.76623-1.003229-23.64935-3.014892z" fill="#6a6a67" mask="url(#a)"/><path d="m425.588312 55.1385542s-75.827273-49.16472287-142.402598-27.3213976c-22.324675 7.3166747-40.744156 21.6806747-55.392208 37.5449639-8.233766 8.9171566-17.718181 29.2849156-46.220779 40.3685785-6.263636 2.431952-13.297402 4.977108-22.158441 6.074024-12.883117 1.599181-21.32987 4.703855-32.109091 7.463711-4.502598 1.151566-13.348052 3.746168-13.97013-1.917976-.427273-3.764386 3.571429-4.79494 7.001299-5.794265 7.309091-2.130073 12.525974-3.950458 19.671428-6.434458 2.481818-.869205 9.014286-1.928386 8.225974-4.541205-.531169-1.7800481-4.801298-.7013493-6.836363-.300578-12.64026 2.460578-24.129871 4.644-36.915585 6.634843-5.1623375.813253-11.4324674 1.76053-12.3311686-2.780675-1.3246754-6.7272284 7.1181818-6.876867 12.9454546-7.8957104 10.745454-1.8672289 19.244156-3.735759 29.577922-5.7747469 1.64026-.3187952 3.901299-.374747 4.596104-2.1990362-1.853247-1.2634699-4.57013-.4541205-6.838961-.114506-13.901299 2.0181687-28.516883 4.1898795-42.0090911 6.9835662-4.4883117.9264579-9.0857143 1.3220241-10.0467532-2.7455421-1.635065-6.912 7.2922078-8.029735 13.0272727-9.4233253 12.2285716-2.966747 22.4857146-3.9309398 36.1922076-6.2145542 1.877922-.3226988 6.102598-.7533976 6.094805-2.3174458.009091-2.1756145-6.594805-1.492482-8.818181-1.4963856-9.985715-.0052048-17.297403.7729157-28.3233771 1.8919518-6.0155844.6037591-13.6753246 2.5464579-14.4051948-2.8405301-1.1311688-8.3680482 15.4155845-7.5196626 22.5805199-8.3381205 13.645454-1.5900722 26.610389-2.0780241 39.093506-5.2776867 5.736364-1.467759 13.394805-3.3675181 13.916883-7.3895422.531169-4.1339277-5.192208-8.7401927-7.107792-9.9789397-3.083117-1.9765302-6.92987-3.385735-10.061039-5.7760482-3.081818-2.3720964-6.314286-5.1449639-7.928571-8.2184097-1.78052-3.3532048-2.392208-11.124 2.642857-11.390747 1.998701-.1040963 6.572727 3.7878073 8.096104 4.789735 2.898701 1.8893494 5.533766 3.2751325 7.912987 4.974506 4.42987 3.1658313 7.358441 6.7454458 11.77922 8.9054458 3.309091 1.6108916 6.589611 2.8040964 9.783117 4.4761446 3.098702 1.6343132 6.228572 3.2386988 9.253247 5.0812048 3.17013 1.9361928 6.088312 6.3446747 10.287013 8.5632289 23.249351 12.2417349 35.519481-10.6867952 29.88961-13.6093012-29.071428-15.1239036-76.890909-34.98289157-105.170129-32.10722891-69.6922082 7.07725301-119.11039 82.83209641-119.11039 82.83209641s63.5857143 64.2678072 133.274026 57.1944582c35.898701-3.636868 66.376623-25.490603 87.522078-45.831037-.545455-.654506 19.732467-24.6981682 44.312987-33.3654935 12.238961-4.3226024 19.824675-9.1643856 29.776623-14.1688193 4.142857-2.0910361 12.236364-6.5203373 14.054546-1.1255422 1.207792 3.5900241-2.476624 5.450747-5.602598 7.1553253-6.68961 3.6459759-11.403896 6.5450603-17.850649 10.5098314-2.233766 1.3753735-8.392208 3.8060241-7.067532 6.1950361.898701 1.6278072 4.837662-.337012 6.746753-1.1736867 11.812987-5.1033253 22.579221-9.7082892 34.64935-14.3861205 4.861039-1.9049639 10.783117-4.1664579 12.629871.070265 2.737662 6.2978314-5.474026 8.2509398-10.963637 10.4916145-10.093506 4.1313253-17.996104 7.7707952-27.651948 11.9801928-1.533766.6636144-3.731169 1.1971084-4.020779 3.1280964 2.075325.8418795 4.551948-.533494 6.709091-1.3506506 13.14026-4.9562892 26.954545-10.2014458 39.538961-15.8265543 4.181818-1.8529156 8.596104-3.2269879 10.402597.5465061 3.072728 6.3889156-5.407792 9.402506-10.716883 11.9866988-11.305195 5.5171084-21.120779 8.6569156-34.024675 13.8226987-1.772727.7182651-5.8 2.0350844-5.464935 3.5666025.450649 2.1326745 6.761039.0481445 8.937662-.4267952 9.755844-2.1313735 16.727273-4.4618313 27.254546-7.9061205 5.74935-1.8893494 12.831168-5.4247229 14.680519-.324 2.896104 7.9360482-13.450649 10.6568672-20.277922 12.9899282-12.987013 4.467036-25.549351 7.734361-37.05974 13.524722-5.284416 2.664868-12.362338 6.158603-12.01039 10.201446.35974 4.150844 6.92987 7.428578 9.064935 8.226217 3.435065 1.272578 7.490909 1.817783 11.058442 3.500241 3.51948 1.646024 7.275324 3.658988 9.502597 6.316048 2.455844 2.895181 4.702598 10.354988-.154545 11.691326-1.924676.52959-7.22987-2.287519-8.916883-2.939422-3.251949-1.224434-6.112987-2.012964-8.807793-3.16453-4.996104-2.143085-8.622078-5.018747-13.405194-6.17682-3.568832-.867903-7.036364-1.327228-10.512987-2.278409-3.371429-.931663-6.764936-1.828193-10.118182-2.98106-3.509091-1.214025-8.093507-3.294651-11.876624-6.157302-1.314285-.985012-3.832467-2.836626-6.664935-2.01947-18.742857.438506-37.187013 10.715422-47.646753 28.785253-10.202597 17.635229-10.236364 38.202073-1.941558 54.529591-1.746754-12.318506.542857-25.506217 7.396103-37.344578 6.52078-11.268434 16.149351-19.528482 27.014286-24.266169 28.118182 11.134409 68.02987 21.026169 105.138961 8.842988 66.567533-21.842024 98.68052-106.4281448 98.68052-106.4281448" fill="#5aa144" mask="url(#a)"/></g></svg>