<svg width="134" height="135" viewBox="0 0 134 135" fill="none" xmlns="http://www.w3.org/2000/svg">
<path d="M26.8604 23.6629H109.252V114.371H26.8604V23.6629Z" fill="white"/>
<path d="M134 67.5C134 104.788 104.012 135 67 135C29.9879 135 0 104.788 0 67.5C0 30.2117 29.9879 0 67 0C104.012 0 134 30.2117 134 67.5ZM55.1129 35.9274V67.5H35.9585C33.0677 67.5 31.6089 71.0383 33.6621 73.0796L64.7036 104.189C65.9734 105.469 67.9996 105.469 69.2694 104.189L100.311 73.0796C102.364 71.0111 100.905 67.5 98.0145 67.5H78.8871V35.9274C78.8871 34.131 77.4282 32.6613 75.6452 32.6613H58.3548C56.5718 32.6613 55.1129 34.131 55.1129 35.9274Z" fill="#2F7719"/>
</svg>
