<svg width="2426" height="389" viewBox="0 0 2426 389" fill="none" xmlns="http://www.w3.org/2000/svg">
<path d="M1213 0L1346.44 0.94075L1478.26 3.75156L1606.86 8.39833L1730.68 14.8246L1848.22 22.9525L1958.04 32.6832L2058.82 43.8987L2149.33 56.4628L2228.48 70.223L2295.3 85.0123L2348.99 100.651L2388.88 116.95L2414.5 133.71L2425.54 150.729L2421.86 167.8L2403.5 184.715L2370.69 201.27L2323.83 217.263L2263.49 232.5L2190.39 246.796L2105.43 259.979L2009.64 271.887L1904.18 282.376L1790.32 291.318L1669.46 298.607L1543.06 304.152L1412.65 307.886L1279.82 309.765H1146.18L1013.35 307.886L882.938 304.152L756.537 298.607L635.676 291.318L521.823 282.376L416.36 271.887L320.567 259.979L235.607 246.796L162.511 232.5L102.167 217.263L55.3068 201.27L22.4994 184.715L4.14307 167.8L0.460571 150.729L11.4967 133.71L37.1174 116.95L77.0118 100.651L130.696 85.0123L197.517 70.223L276.665 56.4628L367.179 43.8987L467.96 32.6832L577.785 22.9525L695.32 14.8246L819.14 8.39833L947.74 3.75156L1079.56 0.94075L1213 0Z" fill="#325343"/>
<path d="M0 155H2426V389H0V155Z" fill="#325343"/>
</svg>
