<svg viewBox="0 0 2560 397" fill="none" xmlns="http://www.w3.org/2000/svg">
<g clip-path="url(#clip0_15_41)">
<path d="M2560 108.66L2498.84 93.5037C2437.69 78.5322 2315.38 48.2195 2193.64 34.357C2071.61 20.4945 1950.44 23.0821 1828.41 23.0821C1706.67 23.0821 1584.36 20.4944 1462.61 19.3854C1340.59 18.0915 1219.41 18.0916 1097.39 32.5085C975.644 47.1104 853.333 75.9443 731.591 67.0723C609.564 58.2003 488.391 11.2527 366.364 -13.8847C244.622 -39.2069 122.311 -42.9036 61.1556 -44.7519L3.87807e-05 -46.6002L0 397L61.1555 397C122.311 397 244.622 397 366.364 397C488.391 397 609.564 397 731.591 397C853.333 397 975.644 397 1097.39 397C1219.41 397 1340.59 397 1462.61 397C1584.36 397 1706.67 397 1828.41 397C1950.44 397 2071.61 397 2193.64 397C2315.38 397 2437.69 397 2498.84 397L2560 397L2560 108.66Z" fill="white"/>
<path d="M2560 116.053L2498.84 117.347C2437.69 118.456 2315.38 121.044 2193.64 107.736C2071.61 94.4278 1950.44 65.5938 1828.41 47.6649C1706.67 29.7361 1584.36 23.0821 1462.61 20.3096C1340.59 17.5371 1219.41 18.646 1097.39 35.0962C975.644 51.3615 853.333 82.7832 731.591 85.0012C609.564 87.0343 488.391 60.0486 366.364 43.044C244.622 26.0393 122.311 19.3853 61.1556 15.8734L3.361e-05 12.5464L0 397L61.1555 397C122.311 397 244.622 397 366.364 397C488.391 397 609.564 397 731.591 397C853.333 397 975.644 397 1097.39 397C1219.41 397 1340.59 397 1462.61 397C1584.36 397 1706.67 397 1828.41 397C1950.44 397 2071.61 397 2193.64 397C2315.38 397 2437.69 397 2498.84 397L2560 397L2560 116.053Z" fill="#D3DAD6"/>
<path d="M2560 199.228L2498.84 199.598C2437.69 199.783 2315.38 200.522 2193.64 189.062C2071.61 177.603 1950.44 154.314 1828.41 143.409C1706.67 132.688 1584.36 134.537 1462.61 126.774C1340.59 119.195 1219.41 101.821 1097.39 106.812C975.644 111.802 853.333 138.788 731.591 138.788C609.564 138.788 488.391 111.802 366.364 98.1243C244.622 84.6315 122.311 84.6314 61.1555 84.6314L2.73081e-05 84.6314L0 397L61.1555 397C122.311 397 244.622 397 366.364 397C488.391 397 609.564 397 731.591 397C853.333 397 975.644 397 1097.39 397C1219.41 397 1340.59 397 1462.61 397C1584.36 397 1706.67 397 1828.41 397C1950.44 397 2071.61 397 2193.64 397C2315.38 397 2437.69 397 2498.84 397L2560 397L2560 199.228Z" fill="#A8B6AF"/>
<path d="M2560 154.868L2498.84 160.413C2437.69 165.958 2315.38 177.048 2193.64 176.679C2071.61 176.494 1950.44 164.664 1828.41 167.437C1706.67 170.209 1584.36 187.584 1462.61 191.835C1340.59 196.086 1219.41 187.584 1097.39 194.977C975.644 202.37 853.333 225.659 731.591 220.484C609.564 215.309 488.391 181.299 366.364 170.209C244.622 159.119 122.311 170.949 61.1555 176.678L1.8744e-05 182.593L0 397L61.1555 397C122.311 397 244.622 397 366.364 397C488.391 397 609.564 397 731.591 397C853.333 397 975.644 397 1097.39 397C1219.41 397 1340.59 397 1462.61 397C1584.36 397 1706.67 397 1828.41 397C1950.44 397 2071.61 397 2193.64 397C2315.38 397 2437.69 397 2498.84 397L2560 397L2560 154.868Z" fill="#7F9489"/>
<path d="M2560 265.768L2498.84 272.792C2437.69 280.001 2315.38 294.048 2193.64 296.266C2071.61 298.484 1950.44 288.503 1828.41 285.176C1706.67 281.849 1584.36 284.806 1462.61 282.958C1340.59 281.109 1219.41 274.455 1097.39 268.91C975.644 263.365 853.333 258.929 731.591 263.365C609.564 267.616 488.391 280.555 366.364 275.01C244.622 269.465 122.311 245.436 61.1555 233.422L1.53507e-05 221.408L0 397L61.1555 397C122.311 397 244.622 397 366.364 397C488.391 397 609.564 397 731.591 397C853.333 397 975.644 397 1097.39 397C1219.41 397 1340.59 397 1462.61 397C1584.36 397 1706.67 397 1828.41 397C1950.44 397 2071.61 397 2193.64 397C2315.38 397 2437.69 397 2498.84 397L2560 397L2560 265.768Z" fill="#587365"/>
<path d="M2560 317.522L2498.84 318.076C2437.69 318.815 2315.38 319.924 2193.64 326.394C2071.61 332.863 1950.44 344.692 1828.41 348.019C1706.67 351.346 1584.36 346.54 1462.61 335.635C1340.59 324.915 1219.41 308.28 1097.39 302.365C975.644 296.635 853.333 301.441 731.591 304.029C609.564 306.431 488.391 306.431 366.364 305.507C244.622 304.583 122.311 302.735 61.1555 301.811L8.40249e-06 300.886L0 397L61.1555 397C122.311 397 244.622 397 366.364 397C488.391 397 609.564 397 731.591 397C853.333 397 975.644 397 1097.39 397C1219.41 397 1340.59 397 1462.61 397C1584.36 397 1706.67 397 1828.41 397C1950.44 397 2071.61 397 2193.64 397C2315.38 397 2437.69 397 2498.84 397L2560 397L2560 317.522Z" fill="#325343"/>
</g>
<defs>
<clipPath id="clip0_15_41">
<rect width="2560" height="1109" fill="white" transform="translate(2560 397) rotate(-180)"/>
</clipPath>
</defs>
</svg>
